<svg data-v-fde0c5aa="" xmlns="http://www.w3.org/2000/svg" viewBox="0 0 300 300" class="iconLeft"><!----><defs data-v-fde0c5aa=""><!----></defs><rect data-v-fde0c5aa="" fill="#1f2937" x="0" y="0" width="300px" height="300px" class="logo-background-square"></rect><defs data-v-fde0c5aa=""><!----></defs><g data-v-fde0c5aa="" id="989611ba-94fe-43f9-8902-d74c96bdec74" fill="#22C4D6" transform="matrix(2.4865313269081324,0,0,2.4865313269081324,110.58433485443446,133.50186466967796)"><path d="M6.71 3.70L9.21 11.48L10.40 11.48L13.29 2.21L12.18 2.21L9.80 10.00L7.31 2.21L6.10 2.21L3.61 10.00L1.23 2.21L0.13 2.21L3.01 11.48L4.20 11.48ZM16.81 4.37C14.77 4.37 13.43 5.98 13.43 7.98C13.43 9.98 14.77 11.59 16.81 11.59C17.98 11.59 18.80 11.12 19.32 10.36L19.32 11.48L20.37 11.48L20.37 4.48L19.32 4.48L19.32 5.61C18.80 4.86 17.98 4.37 16.81 4.37ZM16.95 10.64C15.40 10.64 14.48 9.42 14.48 7.98C14.48 6.54 15.40 5.32 16.95 5.32C18.51 5.32 19.38 6.54 19.38 7.98C19.38 9.42 18.51 10.64 16.95 10.64ZM23.24 1.68L22.19 1.68L22.19 11.48L23.24 11.48ZM26.11 1.68L25.06 1.68L25.06 11.48L26.11 11.48ZM31.05 10.64C29.64 10.64 28.73 9.65 28.57 8.40L34.44 8.40L34.44 7.98C34.44 5.98 33.11 4.37 30.97 4.37C28.83 4.37 27.50 5.98 27.50 7.98C27.50 9.98 28.90 11.59 31.04 11.59C32.70 11.59 33.74 10.72 34.23 9.46L33.08 9.46C32.70 10.16 32.03 10.64 31.05 10.64ZM30.97 5.32C32.31 5.32 33.15 6.23 33.35 7.42L28.59 7.42C28.78 6.23 29.62 5.32 30.97 5.32ZM37.45 11.48L37.45 5.40L39.06 5.40L39.06 4.48L37.45 4.48L37.45 1.97L36.40 1.97L36.40 4.48L34.97 4.48L34.97 5.40L36.40 5.40L36.40 11.48ZM41.41 8.18L44.53 8.18C46.51 8.18 47.73 7.03 47.73 5.19C47.73 3.37 46.51 2.21 44.53 2.21L40.36 2.21L40.36 11.48L41.41 11.48ZM44.46 3.21C45.92 3.21 46.68 3.96 46.68 5.19C46.68 6.44 45.92 7.20 44.46 7.20L41.41 7.20L41.41 3.21ZM52.56 4.37C50.82 4.37 50.12 5.73 49.98 6.20L49.98 4.48L48.93 4.48L48.93 11.48L49.98 11.48L49.98 8.40C49.98 6.86 50.93 5.42 52.50 5.42L52.63 5.42L52.63 4.37ZM56.62 4.37C54.47 4.37 53.14 5.98 53.14 7.98C53.14 9.98 54.47 11.59 56.62 11.59C58.76 11.59 60.09 9.98 60.09 7.98C60.09 5.98 58.76 4.37 56.62 4.37ZM56.62 10.64C55.06 10.64 54.19 9.42 54.19 7.98C54.19 6.54 55.06 5.32 56.62 5.32C58.17 5.32 59.04 6.54 59.04 7.98C59.04 9.42 58.17 10.64 56.62 10.64Z"></path></g><defs data-v-fde0c5aa=""><!----></defs><g data-v-fde0c5aa="" id="9b6f0797-e182-4da9-a1a7-7f563b16b10e" stroke="none" fill="#22C4D6" transform="matrix(1.2320762535122511,0,0,1.2320762535122511,39.38396187324388,120.43016991570597)"><path d="M47.5 18.2v-5.1c0-2.2-1.8-4.1-4.1-4.1H4.6C2.4 9 .5 10.8.5 13.1v5.1h47zM.5 20.3v14.6c0 2.2 1.8 4.1 4.1 4.1h38.8c2.2 0 4.1-1.8 4.1-4.1V20.3H.5zm43 14.5H30.6v-2h12.9v2z"></path></g><!----></svg>